# Blender v3.1.2 OBJ File: 'land.blend'
# www.blender.org
mtllib land.mtl
o Object.1
v -50.000000 -1.000000 50.000000
v 50.000000 -1.000000 50.000000
v -50.000000 1.000000 50.000000
v 50.000000 1.000000 -50.000000
v -50.000000 -1.000000 -50.000000
v -50.000000 1.000000 -50.000000
v 50.000000 -1.000000 -50.000000
v 50.000000 1.000000 50.000000
vt 0.000000 0.000000
vt 1.000000 0.000000
vt 1.000000 1.000000
vt 0.000000 0.000000
vt 1.000000 0.000000
vt 1.000000 1.000000
vt 0.000000 0.000000
vt 1.000000 0.000000
vt 1.000000 1.000000
vt 0.000000 0.000000
vt 1.000000 0.000000
vt 1.000000 1.000000
vt 1.000000 0.000000
vt 0.000000 0.000000
vt 1.000000 1.000000
vt 1.000000 0.000000
vt 0.000000 0.000000
vt 0.000000 0.000000
vt 1.000000 1.000000
vn 0.0000 0.0000 1.0000
vn 0.0000 0.0000 -1.0000
vn 0.0000 -1.0000 -0.0000
vn -1.0000 0.0000 0.0000
vn 1.0000 0.0000 0.0000
vn 0.0000 1.0000 0.0000
usemtl Grass
s off
f 1/1/1 2/2/1 3/3/1
f 4/4/2 5/5/2 6/6/2
f 5/7/2 4/8/2 7/9/2
f 8/10/1 3/11/1 2/12/1
f 5/7/3 7/13/3 2/12/3
f 5/7/4 3/11/4 6/6/4
f 8/10/5 2/2/5 7/9/5
f 6/14/6 3/11/6 8/15/6
f 5/7/4 1/16/4 3/3/4
f 7/17/5 4/8/5 8/15/5
f 2/18/3 1/16/3 5/19/3
f 8/10/6 4/8/6 6/6/6
